<mxfile host="app.diagrams.net" modified="2024-02-02T09:23:10.635Z" agent="Mozilla/5.0 (Macintosh; Intel Mac OS X 10_15_7) AppleWebKit/537.36 (KHTML, like Gecko) Chrome/121.0.0.0 Safari/537.36 Edg/121.0.0.0" etag="oZVFW2p5ljWTrCiq_eEj" version="23.1.1" type="github">
  <diagram name="Page-1" id="tvGonhSXNFc2iGjc_Kjj">
    <mxGraphModel dx="2153" dy="1126" grid="0" gridSize="10" guides="1" tooltips="1" connect="1" arrows="1" fold="1" page="0" pageScale="1" pageWidth="827" pageHeight="1169" math="0" shadow="0">
      <root>
        <mxCell id="0" />
        <mxCell id="1" parent="0" />
        <mxCell id="odmFAWkidFLlXLWtKsm--1" value="Docker" style="rounded=0;whiteSpace=wrap;html=1;verticalAlign=top;dashed=1;dashPattern=12 12;" parent="1" vertex="1">
          <mxGeometry x="-61" y="655" width="602" height="312" as="geometry" />
        </mxCell>
        <mxCell id="odmFAWkidFLlXLWtKsm--2" value="Cassandra:9042" style="rounded=0;whiteSpace=wrap;html=1;" parent="1" vertex="1">
          <mxGeometry x="-33" y="856" width="120" height="60" as="geometry" />
        </mxCell>
        <mxCell id="odmFAWkidFLlXLWtKsm--8" style="edgeStyle=orthogonalEdgeStyle;rounded=0;orthogonalLoop=1;jettySize=auto;html=1;exitX=0.5;exitY=1;exitDx=0;exitDy=0;entryX=0.5;entryY=0;entryDx=0;entryDy=0;" parent="1" source="odmFAWkidFLlXLWtKsm--3" target="odmFAWkidFLlXLWtKsm--2" edge="1">
          <mxGeometry relative="1" as="geometry" />
        </mxCell>
        <mxCell id="odmFAWkidFLlXLWtKsm--3" value="Kong:&lt;br&gt;50000&lt;br&gt;8000,8001,8443" style="rounded=0;whiteSpace=wrap;html=1;" parent="1" vertex="1">
          <mxGeometry x="193" y="740" width="120" height="60" as="geometry" />
        </mxCell>
        <mxCell id="odmFAWkidFLlXLWtKsm--5" value="localstack:&lt;br&gt;4566-4584" style="rounded=0;whiteSpace=wrap;html=1;" parent="1" vertex="1">
          <mxGeometry x="361" y="856" width="120" height="60" as="geometry" />
        </mxCell>
        <mxCell id="odmFAWkidFLlXLWtKsm--9" value="Local Vault:8200" style="rounded=0;whiteSpace=wrap;html=1;" parent="1" vertex="1">
          <mxGeometry x="557" y="572" width="120" height="60" as="geometry" />
        </mxCell>
        <mxCell id="odmFAWkidFLlXLWtKsm--10" value="Auth: 3000" style="rounded=0;whiteSpace=wrap;html=1;" parent="1" vertex="1">
          <mxGeometry x="-18" y="572" width="120" height="60" as="geometry" />
        </mxCell>
        <mxCell id="odmFAWkidFLlXLWtKsm--11" value="vault-engine:4000" style="rounded=0;whiteSpace=wrap;html=1;" parent="1" vertex="1">
          <mxGeometry x="372" y="572" width="120" height="60" as="geometry" />
        </mxCell>
        <mxCell id="odmFAWkidFLlXLWtKsm--15" style="edgeStyle=orthogonalEdgeStyle;rounded=0;orthogonalLoop=1;jettySize=auto;html=1;exitX=0.25;exitY=1;exitDx=0;exitDy=0;entryX=1;entryY=0.5;entryDx=0;entryDy=0;" parent="1" source="odmFAWkidFLlXLWtKsm--12" target="odmFAWkidFLlXLWtKsm--10" edge="1">
          <mxGeometry relative="1" as="geometry" />
        </mxCell>
        <mxCell id="odmFAWkidFLlXLWtKsm--24" style="edgeStyle=orthogonalEdgeStyle;rounded=0;orthogonalLoop=1;jettySize=auto;html=1;exitX=0.5;exitY=1;exitDx=0;exitDy=0;entryX=0;entryY=0.5;entryDx=0;entryDy=0;" parent="1" source="odmFAWkidFLlXLWtKsm--12" target="odmFAWkidFLlXLWtKsm--11" edge="1">
          <mxGeometry relative="1" as="geometry" />
        </mxCell>
        <mxCell id="odmFAWkidFLlXLWtKsm--25" style="edgeStyle=orthogonalEdgeStyle;rounded=0;orthogonalLoop=1;jettySize=auto;html=1;exitX=0;exitY=1;exitDx=0;exitDy=0;entryX=0.25;entryY=0;entryDx=0;entryDy=0;" parent="1" source="odmFAWkidFLlXLWtKsm--12" target="odmFAWkidFLlXLWtKsm--2" edge="1">
          <mxGeometry relative="1" as="geometry" />
        </mxCell>
        <mxCell id="odmFAWkidFLlXLWtKsm--26" style="edgeStyle=orthogonalEdgeStyle;rounded=0;orthogonalLoop=1;jettySize=auto;html=1;exitX=0.75;exitY=1;exitDx=0;exitDy=0;" parent="1" source="odmFAWkidFLlXLWtKsm--12" target="odmFAWkidFLlXLWtKsm--3" edge="1">
          <mxGeometry relative="1" as="geometry" />
        </mxCell>
        <mxCell id="odmFAWkidFLlXLWtKsm--28" style="edgeStyle=orthogonalEdgeStyle;rounded=0;orthogonalLoop=1;jettySize=auto;html=1;exitX=0;exitY=0.5;exitDx=0;exitDy=0;entryX=0.5;entryY=0;entryDx=0;entryDy=0;" parent="1" source="odmFAWkidFLlXLWtKsm--12" target="odmFAWkidFLlXLWtKsm--18" edge="1">
          <mxGeometry relative="1" as="geometry" />
        </mxCell>
        <mxCell id="odmFAWkidFLlXLWtKsm--29" style="edgeStyle=orthogonalEdgeStyle;rounded=0;orthogonalLoop=1;jettySize=auto;html=1;exitX=1;exitY=1;exitDx=0;exitDy=0;entryX=0.25;entryY=0;entryDx=0;entryDy=0;" parent="1" source="odmFAWkidFLlXLWtKsm--12" target="odmFAWkidFLlXLWtKsm--9" edge="1">
          <mxGeometry relative="1" as="geometry" />
        </mxCell>
        <mxCell id="odmFAWkidFLlXLWtKsm--12" value="Deployment: 8080" style="rounded=0;whiteSpace=wrap;html=1;" parent="1" vertex="1">
          <mxGeometry x="199.5" y="461" width="120" height="60" as="geometry" />
        </mxCell>
        <mxCell id="odmFAWkidFLlXLWtKsm--16" style="edgeStyle=orthogonalEdgeStyle;rounded=0;orthogonalLoop=1;jettySize=auto;html=1;exitX=0.75;exitY=1;exitDx=0;exitDy=0;entryX=0.75;entryY=0;entryDx=0;entryDy=0;" parent="1" source="odmFAWkidFLlXLWtKsm--13" target="odmFAWkidFLlXLWtKsm--12" edge="1">
          <mxGeometry relative="1" as="geometry" />
        </mxCell>
        <mxCell id="odmFAWkidFLlXLWtKsm--27" style="edgeStyle=orthogonalEdgeStyle;rounded=0;orthogonalLoop=1;jettySize=auto;html=1;exitX=0.5;exitY=1;exitDx=0;exitDy=0;entryX=0.25;entryY=0;entryDx=0;entryDy=0;" parent="1" source="odmFAWkidFLlXLWtKsm--13" target="odmFAWkidFLlXLWtKsm--18" edge="1">
          <mxGeometry relative="1" as="geometry" />
        </mxCell>
        <mxCell id="odmFAWkidFLlXLWtKsm--30" style="edgeStyle=orthogonalEdgeStyle;rounded=0;orthogonalLoop=1;jettySize=auto;html=1;exitX=0.25;exitY=1;exitDx=0;exitDy=0;entryX=0.5;entryY=0;entryDx=0;entryDy=0;" parent="1" source="odmFAWkidFLlXLWtKsm--13" target="odmFAWkidFLlXLWtKsm--10" edge="1">
          <mxGeometry relative="1" as="geometry" />
        </mxCell>
        <mxCell id="odmFAWkidFLlXLWtKsm--13" value="UI: 4200" style="rounded=0;whiteSpace=wrap;html=1;" parent="1" vertex="1">
          <mxGeometry x="199.5" y="274" width="120" height="60" as="geometry" />
        </mxCell>
        <mxCell id="odmFAWkidFLlXLWtKsm--18" value="provider: 3005" style="rounded=0;whiteSpace=wrap;html=1;" parent="1" vertex="1">
          <mxGeometry x="-258" y="572" width="120" height="60" as="geometry" />
        </mxCell>
        <mxCell id="odmFAWkidFLlXLWtKsm--20" value="notification: 3004" style="rounded=0;whiteSpace=wrap;html=1;" parent="1" vertex="1">
          <mxGeometry x="816" y="446" width="120" height="60" as="geometry" />
        </mxCell>
        <mxCell id="odmFAWkidFLlXLWtKsm--22" value="proxy: 3004" style="rounded=0;whiteSpace=wrap;html=1;" parent="1" vertex="1">
          <mxGeometry x="1016" y="446" width="120" height="60" as="geometry" />
        </mxCell>
        <mxCell id="QyboiXCswWDYYWkQ-Who-1" value="workflow:5010" style="rounded=0;whiteSpace=wrap;html=1;" vertex="1" parent="1">
          <mxGeometry x="613" y="256" width="120" height="60" as="geometry" />
        </mxCell>
      </root>
    </mxGraphModel>
  </diagram>
</mxfile>
